<?xml version="1.0" encoding="utf-8" ?>
<svg baseProfile="full" height="208" version="1.1" width="376" xmlns="http://www.w3.org/2000/svg" xmlns:ev="http://www.w3.org/2001/xml-events" xmlns:xlink="http://www.w3.org/1999/xlink"><defs /><rect fill="white" height="208" width="376" x="0" y="0" /><path d="M 61 180 L 59 170 L 51 164 L 0 178 L 51 164 L 59 170 L 48 169 L 47 173 L 49 169 L 58 171 L 58 175 L 51 176 L 52 180 L 57 184 Z" fill="none" stroke="black" stroke-width="1" /><path d="M 111 153 L 84 164 L 85 159 L 91 158 L 83 158 L 69 168 L 62 160 L 52 159 L 64 162 L 69 168 L 66 173 L 54 161 L 66 173 L 108 154 L 106 159 L 82 171 L 107 159 Z" fill="none" stroke="black" stroke-width="1" /><path d="M 236 137 L 263 147 L 263 152 L 251 152 L 265 152 L 311 173 L 323 162 L 309 172 L 314 160 L 327 161 L 295 165 L 264 151 L 271 148 L 285 153 Z" fill="none" stroke="black" stroke-width="1" /><path d="M 49 95 L 50 97 L 53 97 L 56 99 L 75 98 L 77 100 L 83 97 L 86 98 L 88 97 L 86 98 L 85 96 L 80 99 L 77 99 L 73 97 L 68 98 L 67 96 L 62 94 Z" fill="none" stroke="black" stroke-width="1" /><path d="M 0 94 L 1 95 L 1 97 L 0 98 L 1 98 L 2 99 L 2 100 L 7 100 L 8 99 L 9 99 L 11 97 L 14 96 L 12 94 L 8 94 L 6 96 L 5 96 L 3 94 Z" fill="none" stroke="black" stroke-width="1" /><path d="M 285 99 L 292 94 L 302 95 L 302 100 L 291 99 L 302 102 L 326 99 L 328 105 L 333 106 L 335 99 L 345 104 L 343 101 L 349 95 L 343 96 L 349 96 L 343 101 L 338 98 L 341 95 L 313 97 L 296 91 L 299 96 L 287 94 Z" fill="none" stroke="black" stroke-width="1" /><path d="M 275 86 L 260 79 L 261 89 L 262 78 L 270 85 L 267 96 L 254 86 L 257 95 L 269 97 L 267 107 L 219 106 L 220 99 L 264 102 L 220 99 L 252 88 L 221 96 L 219 109 L 270 106 Z" fill="none" stroke="black" stroke-width="1" /><path d="M 265 75 L 253 69 L 250 73 L 248 66 L 236 82 L 233 75 L 237 79 L 245 68 L 233 68 L 230 78 L 234 68 L 244 70 L 237 79 L 235 72 L 225 90 L 224 84 L 219 93 L 252 85 L 246 77 L 253 70 L 260 74 L 252 80 L 257 78 L 252 80 L 253 76 Z" fill="none" stroke="black" stroke-width="1" /><path d="M 231 66 L 224 67 L 229 70 L 215 79 L 212 71 L 222 69 L 204 77 L 199 90 L 204 92 L 199 89 L 209 86 L 206 92 L 217 92 L 206 91 L 211 84 L 218 90 L 212 85 L 221 86 L 205 81 L 224 79 L 218 77 L 222 74 L 227 78 L 224 82 L 227 77 L 223 73 Z" fill="none" stroke="black" stroke-width="1" /><path d="M 123 84 L 168 94 L 168 89 L 170 94 L 177 89 L 170 81 L 173 80 L 160 73 L 148 73 L 152 69 L 164 73 L 152 66 L 148 67 L 152 69 L 147 72 L 147 80 L 159 73 L 164 78 L 151 79 L 150 89 L 139 90 Z" fill="none" stroke="black" stroke-width="1" /><path d="M 143 68 L 136 65 L 137 72 L 133 67 L 135 74 L 131 66 L 124 66 L 139 82 L 125 69 L 125 73 L 114 71 L 129 77 L 105 77 L 101 94 L 109 81 L 112 89 L 119 84 L 114 87 L 110 81 L 116 77 L 125 82 L 132 75 L 135 86 L 144 72 L 144 86 Z" fill="none" stroke="black" stroke-width="1" /></svg>